<?xml version="1.0" standalone="no"?>
<!DOCTYPE svg PUBLIC "-//W3C//DTD SVG 20010904//EN"
 "http://www.w3.org/TR/2001/REC-SVG-20010904/DTD/svg10.dtd">
<svg version="1.0" xmlns="http://www.w3.org/2000/svg"
 width="312.000000pt" height="312.000000pt" viewBox="0 0 312.000000 312.000000"
 preserveAspectRatio="xMidYMid meet">
<metadata>
Created by potrace 1.14, written by Peter Selinger 2001-2017
</metadata>
<g transform="translate(0.000000,312.000000) scale(0.100000,-0.100000)"
fill="#000000" stroke="none">
<path d="M1494 2980 c-50 -88 -57 -94 -97 -96 -42 -2 -63 -29 -77 -97 -27
-135 -42 -179 -91 -264 -57 -98 -75 -122 -76 -101 0 7 -10 56 -21 108 -12 52
-23 110 -27 127 -15 89 -46 198 -60 212 -10 11 -38 15 -97 16 -93 1 -135 -9
-143 -34 -3 -10 6 -60 19 -112 99 -379 156 -608 156 -622 0 -9 -27 -62 -60
-118 -33 -55 -60 -105 -60 -110 0 -5 -4 -9 -10 -9 -5 0 -10 -4 -10 -9 0 -5
-97 -175 -216 -378 -119 -202 -227 -386 -239 -408 -65 -113 -75 -129 -76 -120
0 6 -2 117 -2 247 -2 283 2 272 -109 273 -96 1 -116 -3 -130 -28 -8 -15 -11
-157 -10 -472 0 -449 0 -450 -23 -495 -12 -25 -20 -52 -16 -61 3 -9 85 -79
181 -155 96 -76 177 -141 180 -144 28 -29 99 -76 112 -75 9 2 67 38 130 81 62
42 140 96 173 118 33 23 64 45 70 49 40 32 347 237 354 237 5 0 12 -14 16 -30
9 -42 31 -50 134 -50 84 0 92 2 106 23 13 20 13 30 1 73 -7 27 -30 112 -50
189 -19 77 -63 243 -96 368 l-60 229 77 136 c43 75 87 153 98 172 11 20 40 73
65 118 25 45 48 82 52 82 3 0 21 -26 39 -57 17 -32 42 -76 55 -98 12 -22 43
-76 68 -120 25 -44 46 -82 46 -85 0 -3 -37 -5 -82 -5 -93 2 -113 -5 -124 -37
-4 -13 -7 -231 -7 -486 0 -548 -11 -502 124 -502 66 0 91 4 103 16 17 17 18
19 21 79 2 22 3 43 4 47 1 4 49 -26 109 -66 230 -157 257 -176 267 -183 6 -4
57 -39 115 -78 58 -38 107 -72 110 -75 3 -3 54 -38 114 -79 96 -65 111 -73
129 -62 64 40 457 366 457 379 0 8 -20 50 -45 93 -45 75 -45 78 -35 125 18 78
10 200 -16 261 -40 92 -102 136 -223 159 -47 9 -59 17 -78 52 -11 21 -33 60
-48 85 l-27 47 44 0 c77 0 87 -7 94 -60 3 -26 10 -53 14 -61 10 -16 98 -26
164 -18 64 7 75 23 71 105 -6 122 -75 216 -179 246 -23 6 -108 12 -190 12
l-149 1 -22 35 c-12 19 -33 55 -47 80 -14 25 -39 68 -55 95 -123 209 -117 194
-118 278 -1 88 -12 106 -66 112 -19 2 -37 4 -40 4 -6 1 -69 99 -69 108 0 3 -9
18 -21 34 -23 33 -15 41 36 38 92 -5 105 8 105 104 0 114 -4 117 -160 117
-150 0 -147 -2 -145 100 l1 65 160 5 c94 3 167 10 179 17 17 10 19 22 19 92 0
122 19 116 -306 116 l-272 0 -50 87 c-67 116 -79 116 -142 8z m459 -1805 c79
-140 75 -154 -56 -157 -52 -2 -87 1 -88 7 0 6 -2 61 -2 123 l-2 112 50 0 50 0
48 -85z m-839 -170 c4 -19 7 -38 8 -42 1 -5 7 -27 14 -50 l13 -43 -69 0 c-39
0 -70 3 -70 6 0 11 85 164 91 164 4 0 10 -16 13 -35z m1062 -222 c15 -27 33
-57 41 -69 13 -20 13 -20 -197 -21 -186 0 -210 2 -211 16 0 9 -2 29 -3 44 -1
16 1 30 4 32 4 2 56 5 116 6 76 1 126 7 160 19 27 9 52 18 56 19 3 0 19 -20
34 -46z"/>
<path d="M247 2878 c-92 -19 -157 -74 -186 -159 -18 -49 -19 -81 -18 -364 l2
-310 28 -52 c54 -104 125 -133 326 -133 173 0 225 14 286 75 72 72 77 101 73
462 -3 344 -4 348 -76 418 -54 52 -114 68 -267 70 -72 0 -147 -3 -168 -7z
m251 -230 c15 -15 17 -525 2 -548 -7 -11 -31 -15 -100 -15 -69 0 -93 4 -101
15 -5 9 -9 128 -8 277 0 236 2 264 17 273 25 14 175 13 190 -2z"/>
<path d="M2401 2878 c-10 -3 -22 -19 -27 -35 -5 -15 -9 -234 -8 -486 1 -542
-10 -497 125 -497 126 0 124 -3 124 197 l0 158 35 1 35 1 75 -165 c41 -90 84
-170 95 -178 13 -10 49 -14 111 -14 75 0 94 3 107 18 10 10 17 26 17 34 0 9
-34 86 -75 173 -41 86 -75 158 -75 161 0 2 18 20 40 40 58 53 78 114 79 254 2
135 -14 203 -61 256 -34 38 -83 67 -138 80 -43 10 -433 12 -459 2z m390 -228
c17 -9 19 -22 19 -103 0 -59 -4 -97 -12 -105 -7 -7 -44 -12 -98 -12 l-86 0 2
113 c1 61 2 113 3 115 3 7 155 0 172 -8z"/>
</g>
</svg>
