<?xml version="1.0" standalone="no"?>
<!DOCTYPE svg PUBLIC "-//W3C//DTD SVG 20010904//EN"
 "http://www.w3.org/TR/2001/REC-SVG-20010904/DTD/svg10.dtd">
<svg version="1.0" xmlns="http://www.w3.org/2000/svg"
 width="2160.000000pt" height="2160.000000pt" viewBox="0 0 2160.000000 2160.000000"
 preserveAspectRatio="xMidYMid meet">
<metadata>
Created by potrace 1.14, written by Peter Selinger 2001-2017
</metadata>
<g transform="translate(0.000000,2160.000000) scale(0.100000,-0.100000)"
fill="#000000" stroke="none">
<path d="M10786 21008 c-9 -12 -16 -26 -16 -31 0 -4 -5 -13 -11 -20 -13 -15
-150 -247 -157 -267 -3 -8 -8 -17 -12 -20 -11 -9 -190 -319 -190 -329 0 -6 -4
-11 -10 -11 -5 0 -10 -4 -10 -9 0 -6 -18 -40 -41 -78 -22 -37 -45 -75 -49 -83
-5 -8 -36 -60 -68 -115 -33 -55 -69 -116 -79 -135 -11 -19 -34 -58 -51 -86
-18 -28 -32 -56 -32 -62 0 -6 -4 -12 -8 -14 -6 -2 -73 -113 -157 -260 -24 -43
-222 -380 -262 -445 -23 -40 -43 -75 -43 -77 0 -2 -16 -28 -35 -57 -19 -30
-35 -59 -35 -65 0 -6 -9 -19 -20 -29 -11 -10 -20 -24 -20 -32 0 -8 -5 -19 -11
-26 -9 -11 -54 -87 -170 -287 -27 -47 -54 -92 -59 -100 -39 -64 -130 -220
-130 -224 0 -2 -16 -28 -35 -57 -19 -30 -35 -59 -35 -65 0 -7 -4 -14 -8 -16
-10 -4 -332 -555 -332 -568 0 -5 -3 -10 -7 -10 -5 0 -21 -26 -38 -58 -16 -31
-32 -59 -35 -62 -3 -3 -48 -77 -98 -165 -111 -190 -104 -180 -192 -327 -39
-64 -70 -119 -70 -123 0 -3 -5 -11 -10 -18 -6 -7 -28 -41 -48 -77 -21 -36 -64
-108 -95 -161 -31 -53 -57 -102 -57 -108 0 -6 -3 -11 -7 -11 -5 0 -21 -24 -37
-53 -16 -28 -49 -86 -73 -127 -50 -86 -41 -71 -130 -219 -37 -63 -75 -127 -83
-142 -8 -16 -45 -79 -82 -141 -36 -62 -74 -127 -85 -145 -10 -17 -39 -66 -64
-110 -26 -43 -55 -94 -66 -113 -11 -19 -34 -58 -51 -86 -18 -28 -32 -56 -32
-62 0 -6 -4 -12 -8 -14 -10 -4 -232 -383 -232 -397 0 -6 -3 -11 -7 -11 -5 0
-21 -26 -38 -58 -16 -31 -32 -59 -35 -62 -12 -11 -190 -320 -190 -330 0 -5 -4
-10 -10 -10 -5 0 -12 -11 -16 -24 -3 -14 -14 -32 -25 -42 -10 -9 -19 -25 -19
-35 0 -9 -3 -19 -8 -21 -6 -2 -51 -78 -219 -365 -10 -17 -39 -67 -65 -112 -27
-44 -48 -85 -48 -91 0 -5 -4 -10 -8 -10 -4 0 -21 -26 -37 -57 -16 -32 -31 -60
-35 -63 -4 -3 -39 -61 -78 -130 -40 -69 -77 -132 -82 -140 -6 -8 -16 -26 -23
-40 -6 -14 -16 -29 -20 -35 -8 -10 -404 -683 -429 -730 -7 -13 -28 -50 -47
-82 -19 -32 -61 -103 -93 -158 -32 -55 -63 -107 -68 -115 -57 -93 -170 -291
-170 -299 0 -6 -3 -11 -8 -11 -4 0 -12 -9 -17 -20 -12 -23 -90 -157 -214 -367
-35 -59 -73 -124 -85 -145 -12 -20 -49 -84 -84 -143 -35 -58 -72 -123 -84
-143 -11 -20 -24 -41 -28 -47 -4 -5 -19 -30 -32 -55 -14 -25 -60 -103 -102
-174 -42 -70 -76 -129 -76 -131 0 -2 -114 -196 -149 -255 -5 -8 -56 -94 -112
-190 -56 -96 -137 -233 -179 -305 -42 -71 -103 -175 -135 -230 -32 -55 -70
-120 -85 -145 -15 -25 -46 -79 -70 -120 -24 -41 -51 -83 -59 -94 -9 -10 -14
-19 -12 -20 3 0 -7 -19 -20 -41 -14 -22 -43 -70 -64 -107 -21 -37 -40 -66 -42
-64 -3 2 -35 142 -49 211 -43 214 -89 417 -102 444 -26 56 -46 59 -347 60
-153 0 -284 -4 -302 -10 -21 -7 -35 -19 -42 -39 -11 -32 -11 -32 50 -259 17
-63 32 -121 34 -130 3 -17 93 -366 151 -586 19 -71 56 -215 83 -320 l49 -190
-39 -67 c-21 -36 -39 -71 -39 -76 0 -6 -4 -12 -8 -14 -11 -4 -162 -263 -162
-276 0 -6 -3 -12 -8 -14 -8 -3 -122 -193 -122 -203 0 -3 -5 -11 -11 -18 -5 -7
-32 -50 -59 -97 -26 -47 -59 -103 -73 -125 -13 -22 -33 -56 -43 -75 -10 -19
-22 -37 -25 -40 -3 -3 -12 -17 -20 -32 -18 -34 -103 -180 -186 -319 -34 -58
-63 -111 -63 -117 0 -6 -4 -12 -8 -14 -5 -1 -22 -26 -38 -55 -16 -28 -59 -102
-96 -165 -36 -62 -74 -127 -85 -145 -10 -17 -40 -69 -67 -115 -27 -45 -55 -92
-60 -103 -6 -11 -45 -76 -85 -145 -41 -69 -118 -201 -173 -295 -55 -93 -103
-177 -108 -185 -5 -8 -30 -51 -56 -95 -26 -44 -59 -100 -74 -125 -91 -151
-170 -289 -170 -298 0 -6 -4 -12 -8 -14 -10 -4 -162 -264 -162 -278 0 -5 -3
-10 -7 -10 -5 0 -21 -26 -38 -58 -16 -31 -33 -59 -36 -62 -11 -10 -89 -149
-89 -159 0 -6 -4 -11 -8 -11 -4 0 -21 -26 -37 -57 -16 -32 -31 -60 -35 -63
-11 -8 -120 -198 -120 -208 0 -5 -7 -15 -16 -22 -8 -8 -21 -27 -29 -44 -8 -17
-25 -49 -38 -71 -132 -220 -421 -715 -428 -732 -7 -19 -2 -27 29 -50 20 -16
48 -38 62 -49 14 -12 66 -54 115 -93 50 -40 97 -77 105 -84 97 -78 132 -106
160 -127 18 -14 38 -30 44 -35 6 -6 49 -41 96 -78 47 -38 103 -83 124 -100 22
-18 60 -48 85 -67 25 -19 59 -47 76 -62 16 -16 33 -28 36 -28 3 0 25 -18 50
-40 24 -22 47 -40 50 -40 3 0 17 -10 31 -23 31 -27 35 -30 173 -140 61 -48
122 -98 137 -112 15 -14 31 -25 37 -25 5 0 11 -3 13 -8 2 -4 30 -28 63 -54 33
-27 67 -54 75 -60 17 -15 271 -218 314 -251 15 -12 33 -27 40 -32 17 -16 119
-97 156 -125 18 -14 38 -30 44 -35 6 -6 49 -41 96 -78 47 -38 92 -74 100 -80
74 -59 138 -110 150 -120 8 -7 62 -50 120 -96 58 -46 107 -87 108 -92 2 -5 10
-9 17 -9 7 0 15 -4 17 -8 1 -5 46 -42 98 -83 52 -40 97 -76 100 -79 3 -3 32
-27 65 -53 33 -26 67 -54 76 -62 22 -21 37 -19 73 8 60 46 167 117 176 117 5
0 13 6 17 13 4 6 16 17 25 22 44 26 323 220 326 227 2 4 8 6 13 2 5 -3 12 2
15 10 3 9 10 16 14 16 4 0 58 35 120 78 62 42 129 88 149 101 20 13 38 27 41
30 3 3 17 12 33 20 15 8 27 18 27 23 0 4 6 8 13 8 7 0 22 8 33 18 10 10 34 27
52 37 17 11 32 23 32 27 0 4 5 8 11 8 6 0 54 30 107 68 53 37 105 70 114 74
10 4 18 12 18 18 0 5 4 10 10 10 5 0 157 101 337 225 180 123 335 229 343 235
259 176 316 215 318 222 2 4 8 8 14 8 11 0 81 51 86 63 2 4 8 7 13 7 6 0 45
24 87 54 110 76 235 162 322 219 40 28 79 54 85 59 9 7 61 43 310 212 33 22
62 43 65 46 3 3 66 45 140 95 74 49 140 95 146 102 6 7 14 13 18 13 9 0 70 43
74 53 2 4 7 7 12 7 8 0 270 177 280 189 3 3 17 12 33 20 15 8 27 18 27 23 0 4
5 8 12 8 6 0 25 10 42 23 17 13 103 72 191 132 88 60 162 112 163 117 2 4 8 8
13 8 11 0 113 71 117 82 2 5 8 8 14 8 5 0 53 31 107 68 53 37 111 77 129 87
17 11 32 23 32 27 0 4 4 8 10 8 11 0 144 91 148 102 2 4 9 8 16 8 7 0 21 8 32
18 10 9 40 31 66 47 27 17 48 33 48 38 0 4 5 7 10 7 11 0 354 233 370 251 3 3
12 8 20 11 14 6 191 128 232 161 15 11 -246 13 -1672 13 -941 -1 -1690 3
-1690 8 0 4 70 133 157 285 86 152 161 285 167 296 6 11 17 28 25 38 8 9 10
17 5 17 -5 0 -4 4 2 8 6 4 27 36 47 72 40 73 75 135 165 294 34 60 62 110 62
113 0 2 5 9 11 16 6 7 79 134 163 282 l153 270 387 5 388 5 24 28 c26 31 26
22 24 315 0 164 -8 193 -53 208 -12 4 -114 9 -227 10 -113 1 -208 2 -212 3 -4
0 11 31 33 67 22 36 43 73 46 82 3 10 12 24 19 32 7 8 27 42 45 75 18 33 43
78 56 100 12 22 31 56 40 75 10 19 20 37 23 40 10 9 110 190 110 198 0 4 6 14
12 20 13 13 71 114 105 182 10 19 23 41 30 48 6 6 15 22 19 35 4 12 10 24 14
27 3 3 68 113 142 245 151 268 141 250 267 470 50 88 91 163 91 167 0 5 3 8 8
8 4 0 7 -529 6 -1177 0 -647 1 -1187 4 -1201 3 -13 19 -32 36 -43 28 -17 53
-19 283 -19 158 0 261 4 276 11 52 24 51 12 52 604 1 303 5 560 9 573 9 26
-11 24 213 26 l183 1 14 -30 c8 -16 31 -66 51 -110 489 -1060 470 -1021 508
-1049 27 -20 43 -21 304 -24 152 -2 286 -1 299 2 13 4 31 18 40 32 23 34 14
61 -90 276 -93 193 -175 363 -246 513 -26 55 -84 176 -129 268 -44 93 -81 174
-81 180 0 7 37 32 82 57 96 53 206 157 257 243 44 75 87 202 103 307 21 131
16 668 -6 784 -69 361 -299 573 -676 625 -36 4 -274 9 -529 9 -255 1 -465 2
-467 4 -1 2 26 54 62 116 35 62 64 115 64 119 0 3 6 14 14 22 7 9 27 41 43 71
17 30 76 136 133 235 56 99 109 193 118 210 9 16 23 38 31 48 8 9 10 17 5 17
-5 0 -4 4 2 8 9 6 69 110 302 522 11 19 44 78 74 130 30 52 66 115 80 140 14
25 91 160 172 301 80 141 146 261 146 267 0 6 4 12 8 14 11 4 362 623 362 637
0 6 3 11 8 11 4 0 23 30 42 68 19 37 37 69 40 72 10 9 100 172 100 181 0 5 5
9 10 9 6 0 10 4 10 10 0 8 39 79 144 260 14 25 45 80 68 122 24 43 47 77 51
75 5 -1 18 -20 30 -42 12 -22 24 -42 27 -45 3 -3 10 -14 16 -25 56 -106 411
-721 416 -723 5 -2 8 -8 8 -13 0 -5 34 -69 76 -142 42 -73 86 -150 98 -172 69
-127 292 -511 298 -513 4 -2 8 -8 8 -14 0 -11 138 -258 150 -268 3 -3 14 -24
25 -47 11 -24 23 -43 26 -43 4 0 10 -11 13 -25 4 -14 11 -25 16 -25 6 0 10 -5
10 -11 0 -6 17 -40 38 -76 20 -36 52 -93 71 -127 19 -33 37 -63 40 -66 3 -3
22 -35 41 -72 19 -38 38 -68 43 -68 4 0 7 -5 7 -11 0 -6 35 -72 78 -146 42
-74 92 -163 111 -196 19 -34 38 -63 42 -65 5 -2 9 -8 9 -14 0 -10 138 -258
149 -268 4 -3 22 -35 41 -72 19 -38 38 -68 43 -68 4 0 7 -5 7 -11 0 -9 87
-167 160 -289 21 -35 85 -149 113 -200 16 -30 35 -62 41 -70 6 -8 25 -41 41
-72 17 -32 33 -58 38 -58 4 0 7 -5 7 -11 0 -10 427 -767 440 -779 3 -3 15 -24
26 -47 l22 -42 -45 -168 c-24 -92 -46 -175 -48 -183 -7 -33 -57 -221 -81 -310
-14 -52 -27 -102 -29 -110 -2 -8 -29 -112 -60 -230 -31 -118 -74 -280 -95
-360 -44 -168 -120 -458 -125 -480 -2 -8 -10 -37 -18 -65 -7 -27 -12 -56 -11
-62 1 -7 2 -17 3 -22 0 -5 8 -17 17 -25 13 -14 54 -16 294 -16 189 0 287 4
304 11 14 7 30 26 36 43 9 30 64 241 116 451 14 55 30 115 35 132 l11 33 236
0 c270 0 234 12 295 -100 17 -30 33 -57 36 -60 3 -3 22 -35 41 -72 19 -38 38
-68 43 -68 4 0 7 -5 7 -11 0 -7 37 -75 81 -153 45 -77 95 -166 112 -196 17
-30 34 -56 39 -58 4 -2 8 -8 8 -14 0 -6 28 -59 61 -117 34 -58 75 -131 92
-161 17 -30 34 -56 39 -58 4 -2 8 -8 8 -14 0 -10 98 -188 109 -198 3 -3 16
-25 29 -50 12 -25 32 -61 44 -80 12 -19 22 -38 23 -42 0 -4 7 -16 16 -26 8
-10 18 -26 22 -35 3 -9 32 -61 63 -114 31 -54 70 -123 87 -153 17 -30 34 -56
39 -58 4 -2 8 -9 8 -15 0 -7 65 -124 144 -262 79 -137 143 -252 141 -255 -2
-3 -771 -5 -1709 -5 -938 1 -1706 -3 -1706 -7 0 -4 5 -8 11 -8 6 0 16 -6 24
-12 25 -25 283 -198 293 -198 6 0 12 -4 14 -8 2 -5 57 -45 123 -90 66 -45 125
-85 130 -89 48 -36 105 -73 113 -73 6 0 12 -4 14 -8 2 -5 84 -64 183 -131 99
-67 273 -186 388 -264 114 -78 221 -150 238 -160 16 -9 40 -26 51 -37 12 -11
27 -20 34 -20 7 0 14 -4 16 -8 4 -11 256 -182 267 -182 5 0 11 -4 13 -8 5 -11
164 -122 176 -122 6 0 12 -4 14 -8 5 -12 225 -162 237 -162 6 0 11 -3 11 -7 0
-5 21 -21 48 -38 26 -16 49 -32 52 -35 10 -13 129 -90 139 -90 5 0 11 -3 13
-8 5 -11 107 -82 118 -82 6 0 10 -3 10 -7 0 -5 21 -21 48 -38 26 -16 77 -51
113 -77 37 -26 72 -48 78 -48 6 0 11 -4 11 -10 0 -5 6 -10 14 -10 8 0 16 -4
18 -8 3 -8 115 -86 438 -304 80 -53 150 -101 155 -106 6 -4 37 -26 70 -48 33
-22 97 -66 143 -97 45 -31 87 -57 92 -57 4 0 10 -3 12 -8 4 -11 166 -122 177
-122 5 0 11 -4 13 -8 4 -11 167 -122 179 -122 5 0 9 -4 9 -8 0 -5 12 -15 28
-23 15 -8 36 -22 46 -31 11 -10 25 -18 32 -18 7 0 14 -4 16 -8 3 -7 164 -121
268 -189 19 -12 40 -27 47 -33 7 -5 15 -10 18 -10 3 0 15 -8 26 -18 10 -11 32
-25 47 -33 15 -8 29 -17 32 -20 3 -3 57 -41 120 -84 63 -43 149 -102 192 -132
42 -29 81 -53 87 -53 6 0 11 -3 11 -7 0 -5 25 -24 55 -43 30 -19 55 -38 55
-42 0 -5 5 -8 10 -8 6 0 39 -20 74 -45 36 -25 68 -45 71 -45 3 0 11 -5 18 -10
46 -39 61 -50 68 -50 4 0 14 -6 21 -13 22 -21 106 -77 116 -77 6 0 12 -4 14
-8 5 -12 122 -92 135 -92 9 0 215 159 233 180 3 3 36 29 74 59 38 29 78 61 90
71 11 10 102 82 201 161 99 78 185 147 191 153 7 6 25 21 40 33 25 19 119 94
164 130 8 7 53 43 100 80 47 37 92 74 100 81 8 6 56 44 105 83 50 39 101 81
115 93 14 11 57 46 95 75 39 30 77 61 85 68 8 7 65 52 125 100 61 48 112 89
115 93 3 3 36 29 74 59 38 29 78 61 90 71 11 10 91 73 176 141 85 67 157 125
160 128 3 4 70 58 150 121 80 62 147 116 150 120 3 3 48 39 100 79 52 41 102
80 110 88 8 8 44 37 80 65 36 28 83 66 106 84 22 19 48 40 57 47 15 11 10 24
-56 135 -124 212 -204 349 -241 415 -16 29 -32 54 -36 57 -4 3 -10 15 -14 28
-4 12 -12 22 -17 22 -5 0 -9 5 -9 11 0 15 -110 202 -124 211 -6 4 -8 8 -3 8 4
0 -15 36 -43 81 -27 44 -50 84 -50 89 0 5 -6 15 -13 22 -7 7 -23 34 -37 60
-14 27 -28 48 -31 48 -4 0 -10 11 -13 25 -4 14 -11 25 -16 25 -6 0 -10 5 -10
11 0 6 -38 76 -85 155 -47 80 -85 149 -85 154 0 4 -3 10 -8 12 -4 2 -32 46
-62 98 -29 52 -57 97 -62 98 -4 2 -8 8 -8 13 0 10 -329 575 -362 622 -11 15
-17 27 -13 27 3 0 -5 15 -19 33 -15 19 -26 37 -26 40 0 10 -63 111 -73 118 -5
3 -9 10 -8 15 0 9 -257 454 -268 464 -3 3 -19 30 -35 60 -16 30 -32 57 -35 60
-4 3 -13 19 -21 35 -8 17 -16 33 -18 37 -2 4 14 1 35 -5 44 -14 885 -17 968
-4 126 20 301 93 370 153 17 14 39 33 50 43 38 30 103 116 139 181 74 137 103
298 100 565 -1 130 -5 182 -18 280 -30 219 -188 453 -369 543 -59 30 -276 106
-331 116 -15 3 -34 7 -44 10 -18 6 -27 7 -162 31 -99 17 -144 23 -220 30 -214
20 -320 51 -394 115 -66 59 -78 93 -76 235 2 284 45 367 210 406 58 13 391 17
465 6 176 -28 229 -98 239 -319 8 -159 4 -156 317 -158 278 -1 306 4 328 59
13 30 10 231 -4 326 -33 213 -129 385 -279 499 -82 62 -218 122 -321 142 -22
4 -47 9 -55 12 -8 2 -193 6 -410 7 -420 4 -493 -2 -628 -45 -180 -58 -333
-185 -420 -349 -38 -71 -78 -206 -88 -297 -12 -113 -10 -399 4 -506 35 -280
185 -514 385 -602 111 -49 407 -131 546 -150 14 -2 58 -9 96 -14 39 -6 101
-14 140 -17 62 -6 86 -10 120 -19 6 -1 26 -6 45 -10 59 -14 153 -65 196 -108
74 -72 93 -201 61 -410 -2 -10 -6 -21 -10 -24 -4 -4 -7 -14 -7 -23 0 -8 -11
-31 -25 -52 -33 -46 -111 -85 -196 -96 -89 -12 -443 -8 -502 6 -146 34 -194
107 -202 305 -5 108 -16 143 -50 156 -15 6 -138 10 -283 10 -210 -1 -261 -3
-276 -15 -27 -21 -30 -20 -52 20 -10 19 -22 35 -26 35 -5 0 -7 3 -6 7 2 5 -33
69 -77 143 -44 74 -81 141 -83 148 -2 6 -8 12 -13 12 -5 0 -9 5 -9 11 0 10
-78 148 -90 159 -3 3 -16 26 -30 52 -13 27 -29 48 -34 48 -5 0 -7 3 -4 6 3 3
-11 34 -31 69 -34 58 -37 67 -31 121 3 33 4 201 4 374 -2 377 -6 425 -50 560
-77 232 -256 398 -499 463 -81 21 -123 27 -234 32 -98 5 -112 11 -134 54 -20
39 -240 415 -246 421 -3 3 -19 30 -35 60 -16 30 -32 57 -35 60 -3 3 -17 26
-31 53 -13 26 -28 47 -32 47 -5 0 -7 3 -6 8 2 6 -29 63 -72 132 -5 8 -73 125
-151 260 -79 135 -145 247 -148 250 -3 3 -14 21 -25 40 -60 113 -139 245 -148
248 -4 2 -8 8 -8 14 0 13 -110 201 -122 209 -6 3 -9 9 -8 13 2 10 -321 560
-334 568 -6 4 -8 8 -3 8 4 0 -15 36 -43 81 -27 44 -50 82 -50 84 0 5 -103 179
-109 185 -3 3 -19 30 -35 60 -16 30 -42 74 -58 98 -15 24 -28 47 -28 53 0 5
-5 9 -10 9 -6 0 -9 3 -8 8 2 6 -22 50 -72 132 -5 8 -51 87 -102 175 -51 88
-96 162 -100 163 -4 2 -8 10 -8 18 0 12 -32 66 -50 84 -3 3 -12 19 -20 35 -8
17 -41 75 -74 130 -32 55 -99 170 -149 255 -49 85 -95 158 -101 162 -6 4 -7 8
-3 8 5 0 0 12 -11 28 -10 15 -49 81 -87 147 -38 66 -73 122 -77 123 -4 2 -8 8
-8 13 0 5 -28 57 -62 115 -35 58 -69 117 -77 132 -8 15 -18 28 -23 30 -4 2 -8
8 -8 13 0 13 -182 323 -192 327 -4 2 -8 8 -8 14 0 13 -110 201 -122 209 -6 3
-8 8 -7 10 3 3 -24 53 -71 129 -5 8 -28 49 -52 90 -23 41 -46 77 -50 78 -5 2
-8 8 -8 13 0 10 -138 250 -149 259 -3 3 -13 18 -21 35 -8 16 -51 91 -94 165
-43 74 -110 189 -149 255 -38 66 -75 123 -81 127 -6 4 -7 8 -3 8 5 0 0 12 -11
28 -18 27 -100 166 -156 266 -15 28 -34 58 -42 67 -8 8 -14 18 -14 22 0 4 -28
53 -61 109 -34 57 -73 122 -85 145 -13 23 -54 93 -91 155 -36 62 -93 158 -125
213 -81 138 -82 139 -93 147 -5 4 -7 8 -2 8 4 0 -10 28 -31 63 -22 34 -61 100
-88 147 -26 47 -52 87 -56 88 -4 2 -8 8 -8 14 0 9 -78 147 -90 158 -3 3 -16
26 -30 53 -13 26 -28 47 -32 47 -5 0 -7 3 -6 8 4 9 -192 346 -204 350 -4 2 -8
8 -8 14 0 14 -110 201 -124 210 -6 4 -7 8 -3 8 5 0 0 12 -11 28 -10 15 -49 81
-87 147 -38 66 -73 122 -77 123 -4 2 -8 8 -8 14 0 13 -141 251 -155 260 -5 4
-7 8 -3 8 4 0 -9 28 -30 63 -21 34 -67 112 -102 172 -35 61 -66 112 -69 115
-3 3 -19 30 -35 60 -16 30 -32 57 -35 60 -3 3 -17 26 -31 53 -13 26 -28 47
-32 47 -5 0 -7 3 -6 8 2 6 -26 57 -72 132 -5 8 -51 87 -102 175 -51 88 -96
162 -100 163 -5 2 -8 8 -8 13 0 5 -15 34 -32 65 -18 30 -37 63 -43 72 -5 10
-41 71 -79 137 -39 66 -72 122 -75 125 -3 3 -13 19 -22 35 -41 78 -133 231
-141 236 -5 3 -10 10 -9 15 0 10 -159 284 -164 284 -2 0 -11 -10 -19 -22z
m-1262 -11982 c105 -15 172 -65 206 -153 17 -45 19 -80 20 -329 1 -328 -5
-363 -74 -429 -68 -66 -82 -68 -447 -72 -298 -4 -327 -3 -340 13 -11 14 -14
93 -14 468 0 248 1 461 3 474 3 14 14 25 33 30 36 9 546 8 613 -2z m4579
-1518 c9 -6 9 -8 0 -9 -7 -1 -19 -2 -25 -3 -23 -4 -27 4 -16 36 11 32 11 32
20 8 5 -14 14 -28 21 -32z"/>
<path d="M920 9594 c-8 -1 -49 -8 -90 -14 -215 -35 -390 -144 -497 -309 -43
-65 -88 -172 -102 -243 -6 -29 -14 -64 -18 -78 -10 -40 -12 -1897 -2 -1975 46
-342 232 -557 559 -646 82 -22 101 -23 530 -26 245 -1 465 1 490 6 25 5 62 12
83 15 85 13 241 80 309 133 120 93 210 234 256 400 l27 98 2 960 c2 776 -1
975 -12 1040 -53 314 -222 514 -505 598 -47 14 -103 29 -125 33 -37 6 -872 14
-905 8z m720 -574 c74 -19 119 -55 148 -118 l27 -57 2 -872 c1 -684 -1 -882
-11 -920 -26 -97 -56 -134 -135 -164 -52 -20 -76 -22 -311 -23 -274 -2 -333 3
-395 37 -36 20 -90 85 -93 111 0 6 -5 34 -9 61 -5 28 -9 435 -8 905 1 854 2
855 23 911 12 31 32 65 45 77 32 30 94 54 157 59 30 3 56 6 57 7 10 8 469 -5
503 -14z"/>
<path d="M11079 9584 c-15 -7 -30 -21 -35 -31 -12 -26 -13 -3173 -1 -3198 5
-11 19 -28 31 -37 20 -17 81 -18 911 -17 1038 0 935 -13 944 117 3 42 4 151 1
240 l-5 164 -28 24 -28 24 -573 0 c-470 0 -576 2 -591 14 -18 13 -19 53 -20
1332 0 1438 3 1352 -56 1373 -15 5 -139 9 -275 9 -193 0 -255 -3 -275 -14z"/>
</g>
</svg>
